# xmcd CD database file
#
# Track frame offsets:
#	150
#	31502
#	69451
#	97345
#	121930
#	137875
#	176081
#	193721
#	235504
#	243796
#
# Disc length: 3550 seconds
#
# Revision: 0
# Processed by: cddbd v1.5.2PL0 Copyright (c) Steve Scherf et al.
# Submitted via: CDex 1.70beta2
#
DISCID=810ddc0a
DTITLE=Renza Bô - L'oeil tranquille
DYEAR=2009
DGENRE=Jazz
TTITLE0=E.E.
TTITLE1=Soum Bryss
TTITLE2=Quelque Chose
TTITLE3=Pièce d'origine
TTITLE4=Bel'astroblème
TTITLE5=La Clave
TTITLE6=Langue de chat
TTITLE7=DÜB
TTITLE8=Short
TTITLE9=Loeil tranquille
EXTD=YEAR: 2009
EXTT0=
EXTT1=
EXTT2=
EXTT3=
EXTT4=
EXTT5=
EXTT6=
EXTT7=
EXTT8=
EXTT9=
PLAYORDER=
